<?xml version="1.0" encoding="UTF-8"?>
<svg xmlns="http://www.w3.org/2000/svg" viewBox="0 0 600 400" role="img" aria-label="BUYHORECA logo">
  <g fill-rule="evenodd" clip-rule="evenodd">
    <path fill="#00C97B" d="M 28,227 28,230 29,231 29,232 30,232 30,231 29,230 29,227 Z M 25,213 25,216 26,217 26,221 27,222 27,225 28,225 28,222 27,221 27,217 26,216 26,213 Z M 24,208 24,211 25,211 25,208 Z M 69,205 68,205 67,204 65,204 65,205 67,205 68,206 68,211 67,212 67,216 66,217 66,219 65,220 65,221 62,224 61,224 60,225 34,225 34,226 60,226 61,225 63,225 65,223 65,222 67,219 67,217 68,216 68,212 69,211 Z M 23,204 23,206 27,206 27,205 25,205 24,204 Z M 59,203 59,204 63,204 63,203 Z M 29,205 34,205 35,204 43,204 43,203 35,203 34,204 29,204 Z M 22,199 22,202 23,202 23,199 Z M 14,190 14,191 17,191 18,192 19,192 21,195 21,197 22,197 22,195 21,194 21,193 20,193 19,192 19,191 18,191 17,190 Z M 526,182 524,185 523,190 521,193 521,195 520,196 520,197 519,198 519,200 517,203 516,208 514,211 514,213 513,214 513,216 511,219 510,224 509,225 509,226 508,227 508,229 506,232 505,237 519,237 519,235 521,232 521,230 523,228 544,228 545,229 545,231 546,232 547,237 561,237 561,235 560,234 559,229 557,226 556,221 554,218 554,216 553,215 552,210 551,209 551,208 550,207 550,205 548,202 547,197 545,194 545,192 544,191 544,189 542,186 542,184 541,183 541,182 Z M 533,198 535,201 536,206 538,209 538,211 539,212 539,214 540,215 540,217 539,218 528,218 526,216 527,215 527,213 528,212 529,207 531,204 531,202 532,201 532,199 Z M 424,182 424,237 455,237 455,226 438,226 437,225 437,216 438,215 454,215 454,204 439,204 437,202 437,194 438,193 455,193 455,182 Z M 374,182 374,237 387,237 387,217 388,216 391,219 391,220 397,228 398,231 400,233 400,234 402,236 402,237 418,237 417,234 410,226 410,225 407,222 407,221 402,215 404,213 406,213 407,212 408,212 412,208 412,207 413,206 413,204 414,203 414,195 413,194 413,191 412,190 412,189 407,184 406,184 405,183 403,183 402,182 Z M 387,193 388,192 395,192 396,193 397,193 400,196 400,198 401,199 401,200 400,201 400,203 397,206 395,206 394,207 388,207 387,206 Z M 248,182 248,237 261,237 261,215 262,214 283,214 284,215 284,237 297,237 297,182 284,182 284,202 283,203 262,203 261,202 261,182 Z M 477,183 476,184 473,185 470,188 469,188 468,189 468,190 465,193 465,194 462,198 462,200 461,201 461,203 460,204 460,216 461,217 461,219 462,220 465,227 470,232 471,232 473,234 474,234 479,237 481,237 482,238 496,238 497,237 500,237 501,236 502,236 502,221 501,221 496,225 492,225 491,226 489,226 488,225 484,225 483,224 480,223 478,221 478,220 476,218 476,217 474,214 474,205 475,204 476,201 482,195 483,195 484,194 489,194 490,193 491,194 496,194 497,195 498,195 501,198 502,198 502,184 499,182 496,182 495,181 483,181 482,182 Z M 321,183 319,185 318,185 316,187 315,187 311,191 311,192 309,194 309,195 306,200 306,203 305,204 305,215 306,216 307,221 308,222 309,225 311,227 311,228 318,234 319,234 322,236 327,237 328,238 344,238 345,237 347,237 348,236 353,234 355,232 356,232 360,228 360,227 362,225 362,224 365,219 365,217 366,216 366,204 365,203 365,200 364,199 364,197 363,196 363,195 360,192 360,191 355,186 354,186 350,183 348,183 347,182 345,182 344,181 337,181 336,180 334,180 333,181 327,181 326,182 Z M 329,194 332,194 333,193 338,193 339,194 342,194 343,195 344,195 350,201 350,202 352,205 352,214 351,215 350,218 344,224 343,224 342,225 337,225 336,226 335,226 334,225 330,225 329,224 326,223 321,218 321,217 319,214 319,205 320,204 321,201 327,195 328,195 Z"/>
    <path fill="#FFFFFF" d="M 56,238 56,239 57,239 57,238 Z M 36,238 36,239 37,239 37,238 Z M 52,237 52,238 53,239 54,239 54,238 53,237 Z M 41,237 40,237 39,238 39,239 40,239 41,238 Z M 573,233 573,234 574,235 577,235 577,232 574,232 Z M 54,232 54,233 56,233 58,235 58,236 59,236 58,233 57,233 56,232 Z M 39,232 37,232 36,233 35,233 34,236 35,236 35,235 37,233 39,233 Z M 561,218 561,224 562,225 562,226 565,229 570,230 571,229 573,229 577,225 577,218 574,218 574,223 571,226 567,226 564,223 564,218 Z M 566,199 565,200 564,200 561,204 561,211 562,212 562,213 566,216 572,216 573,215 574,215 577,211 577,204 576,203 576,202 572,199 Z M 568,202 570,202 574,205 574,210 570,213 568,213 564,210 564,205 Z M 190,181 191,184 194,187 194,188 196,190 196,191 198,193 198,194 200,196 200,197 202,199 202,200 205,203 205,204 207,206 207,207 210,211 210,237 224,237 224,210 225,209 225,208 228,205 228,204 231,201 231,200 233,198 233,197 236,194 236,193 238,191 238,190 241,187 241,186 243,184 244,181 228,181 218,196 217,196 214,193 214,192 211,189 211,188 209,186 209,185 206,181 Z M 138,181 138,221 139,222 139,225 140,226 142,231 148,236 150,236 151,237 153,237 154,238 158,238 159,239 165,239 166,238 170,238 171,237 173,237 174,236 177,235 183,229 183,228 186,223 186,218 187,217 187,182 186,181 173,181 173,218 172,219 172,221 167,226 165,226 164,227 160,227 159,226 156,225 153,222 153,221 152,220 152,182 151,181 Z M 89,181 89,237 118,237 119,236 121,236 122,235 125,234 129,230 129,229 130,228 130,226 131,225 131,218 130,217 130,215 129,214 129,213 126,210 125,210 120,207 123,205 123,204 125,201 125,190 124,189 123,186 121,184 120,184 117,182 113,182 112,181 Z M 102,215 103,214 112,214 113,215 114,215 117,218 117,222 116,223 116,224 114,226 112,226 111,227 103,227 102,226 Z M 102,193 103,192 109,192 110,193 111,193 113,196 113,200 110,203 109,203 108,204 103,204 102,203 Z M 577,177 575,177 574,178 569,178 568,179 562,179 561,180 561,183 562,184 564,184 569,187 567,189 561,191 561,194 562,195 566,195 567,196 572,196 573,197 577,197 577,194 574,194 573,193 569,193 568,192 573,189 575,189 576,188 577,188 577,187 576,186 575,186 574,185 572,185 568,182 569,181 576,181 577,180 Z M 43,171 42,172 39,173 38,174 38,175 35,178 33,178 32,179 31,179 29,181 29,183 28,184 28,185 29,186 29,188 35,193 35,196 36,196 36,191 35,190 33,190 30,187 30,182 32,180 33,180 34,179 37,179 37,178 39,176 39,175 44,172 47,172 48,173 50,173 53,176 60,176 64,180 64,181 65,182 65,185 64,186 64,188 61,191 57,191 57,205 53,208 44,208 43,207 41,207 41,208 42,208 43,209 54,209 55,208 58,207 58,193 59,192 61,192 62,191 63,191 65,189 65,188 66,187 66,181 65,180 65,179 62,176 61,176 60,175 54,175 52,173 51,173 48,171 Z"/>
  </g>
</svg>
